<?xml version="1.0" encoding="UTF-8" standalone="no"?>
<svg
   xmlns:dc="http://purl.org/dc/elements/1.1/"
   xmlns:cc="http://creativecommons.org/ns#"
   xmlns:rdf="http://www.w3.org/1999/02/22-rdf-syntax-ns#"
   xmlns:svg="http://www.w3.org/2000/svg"
   xmlns="http://www.w3.org/2000/svg"
   xmlns:sodipodi="http://sodipodi.sourceforge.net/DTD/sodipodi-0.dtd"
   xmlns:inkscape="http://www.inkscape.org/namespaces/inkscape"
   version="1.0"
   width="512px"
   height="512px"
   viewBox="0 0 5120 5120"
   preserveAspectRatio="xMidYMid meet"
   id="svg897"
   sodipodi:docname="telegram.svg"
   inkscape:version="0.92.3 (unknown)">
  <metadata
     id="metadata903">
    <rdf:RDF>
      <cc:Work
         rdf:about="">
        <dc:format>image/svg+xml</dc:format>
        <dc:type
           rdf:resource="http://purl.org/dc/dcmitype/StillImage" />
      </cc:Work>
    </rdf:RDF>
  </metadata>
  <defs
     id="defs901" />
  <sodipodi:namedview
     pagecolor="#ffffff"
     bordercolor="#666666"
     borderopacity="1"
     objecttolerance="10"
     gridtolerance="10"
     guidetolerance="10"
     inkscape:pageopacity="0"
     inkscape:pageshadow="2"
     inkscape:window-width="878"
     inkscape:window-height="480"
     id="namedview899"
     showgrid="false"
     inkscape:zoom="0.4609375"
     inkscape:cx="17.355932"
     inkscape:cy="256"
     inkscape:window-x="0"
     inkscape:window-y="27"
     inkscape:window-maximized="0"
     inkscape:current-layer="svg897" />
  <g
     id="layer101"
     fill="#000000"
     stroke="none">
    <path
       d="M3109 5088 c-129 -64 -269 -240 -393 -492 -103 -208 -300 -623 -396 -832 -179 -389 -241 -497 -344 -600 -131 -131 -201 -167 -1276 -664 -74 -34 -169 -78 -210 -97 -169 -78 -340 -216 -405 -327 -14 -23 -32 -73 -41 -109 -16 -62 -16 -72 -1 -132 27 -108 113 -209 241 -280 114 -63 469 -195 1266 -470 234 -81 722 -255 1085 -387 1197 -435 1662 -598 1875 -656 125 -34 145 -37 275 -37 135 0 142 1 187 28 123 72 145 251 68 564 -86 352 -432 1401 -845 2558 -86 242 -197 557 -245 700 -256 759 -375 1036 -495 1159 -76 78 -133 106 -218 106 -52 0 -76 -6 -128 -32z"
       id="path894"
       style="fill:#c0a062;fill-opacity:1" />
  </g>
</svg>
