<?xml version="1.0" encoding="UTF-8" standalone="no"?>
<svg
   xmlns:dc="http://purl.org/dc/elements/1.1/"
   xmlns:cc="http://creativecommons.org/ns#"
   xmlns:rdf="http://www.w3.org/1999/02/22-rdf-syntax-ns#"
   xmlns:svg="http://www.w3.org/2000/svg"
   xmlns="http://www.w3.org/2000/svg"
   xmlns:sodipodi="http://sodipodi.sourceforge.net/DTD/sodipodi-0.dtd"
   xmlns:inkscape="http://www.inkscape.org/namespaces/inkscape"
   version="1.0"
   width="512px"
   height="512px"
   viewBox="0 0 5120 5120"
   preserveAspectRatio="xMidYMid meet"
   id="svg2090"
   sodipodi:docname="gitlab.svg"
   inkscape:version="0.92.3 (unknown)">
  <metadata
     id="metadata2096">
    <rdf:RDF>
      <cc:Work
         rdf:about="">
        <dc:format>image/svg+xml</dc:format>
        <dc:type
           rdf:resource="http://purl.org/dc/dcmitype/StillImage" />
      </cc:Work>
    </rdf:RDF>
  </metadata>
  <defs
     id="defs2094" />
  <sodipodi:namedview
     pagecolor="#ffffff"
     bordercolor="#666666"
     borderopacity="1"
     objecttolerance="10"
     gridtolerance="10"
     guidetolerance="10"
     inkscape:pageopacity="0"
     inkscape:pageshadow="2"
     inkscape:window-width="878"
     inkscape:window-height="480"
     id="namedview2092"
     showgrid="false"
     inkscape:zoom="0.4609375"
     inkscape:cx="17.355932"
     inkscape:cy="256"
     inkscape:window-x="0"
     inkscape:window-y="27"
     inkscape:window-maximized="0"
     inkscape:current-layer="svg2090" />
  <g
     id="layer101"
     fill="#000000"
     stroke="none">
    <path
       d="M1300 4011 c-976 -708 -1259 -918 -1277 -948 -46 -76 -38 -114 111 -569 74 -225 259 -794 411 -1264 152 -470 285 -884 297 -919 28 -85 54 -111 112 -111 32 0 52 6 71 23 26 22 52 102 526 1569 l70 218 939 0 939 0 70 -217 c474 -1468 500 -1548 526 -1570 31 -27 99 -31 132 -8 12 8 28 34 37 57 9 24 144 441 301 928 158 487 347 1069 421 1294 148 452 156 490 113 567 -18 31 -258 209 -1270 943 -686 499 -1254 908 -1262 911 -8 4 -523 -364 -1267 -904z m1169 647 c-38 -117 -246 -757 -462 -1423 l-394 -1210 -653 -3 c-622 -2 -653 -1 -638 15 8 10 509 651 1113 1426 603 774 1098 1407 1100 1407 1 0 -28 -96 -66 -212z m1231 -1213 c596 -765 1090 -1398 1098 -1408 15 -16 -16 -17 -638 -15 l-653 3 -394 1210 c-562 1728 -534 1640 -514 1619 10 -10 505 -644 1101 -1409z"
       id="path2087"
       style="fill:#c0a062;fill-opacity:1" />
  </g>
</svg>
