<?xml version="1.0" encoding="UTF-8" standalone="no"?>
<svg
   xmlns:dc="http://purl.org/dc/elements/1.1/"
   xmlns:cc="http://creativecommons.org/ns#"
   xmlns:rdf="http://www.w3.org/1999/02/22-rdf-syntax-ns#"
   xmlns:svg="http://www.w3.org/2000/svg"
   xmlns="http://www.w3.org/2000/svg"
   xmlns:sodipodi="http://sodipodi.sourceforge.net/DTD/sodipodi-0.dtd"
   xmlns:inkscape="http://www.inkscape.org/namespaces/inkscape"
   version="1.0"
   width="512px"
   height="512px"
   viewBox="0 0 5120 5120"
   preserveAspectRatio="xMidYMid meet"
   id="svg1499"
   sodipodi:docname="mail.svg"
   inkscape:version="0.92.3 (unknown)">
  <metadata
     id="metadata1505">
    <rdf:RDF>
      <cc:Work
         rdf:about="">
        <dc:format>image/svg+xml</dc:format>
        <dc:type
           rdf:resource="http://purl.org/dc/dcmitype/StillImage" />
      </cc:Work>
    </rdf:RDF>
  </metadata>
  <defs
     id="defs1503" />
  <sodipodi:namedview
     pagecolor="#ffffff"
     bordercolor="#666666"
     borderopacity="1"
     objecttolerance="10"
     gridtolerance="10"
     guidetolerance="10"
     inkscape:pageopacity="0"
     inkscape:pageshadow="2"
     inkscape:window-width="878"
     inkscape:window-height="480"
     id="namedview1501"
     showgrid="false"
     inkscape:zoom="0.4609375"
     inkscape:cx="190.91525"
     inkscape:cy="256"
     inkscape:window-x="0"
     inkscape:window-y="27"
     inkscape:window-maximized="0"
     inkscape:current-layer="svg1499" />
  <g
     id="layer101"
     fill="#000000"
     stroke="none">
    <path
       id="path1496"
       style="fill:#c0a062;fill-opacity:1"
       d="M 2490,2633 C 2471,2622 2311,2521 2135,2409 1848,2224 1043,1714 705,1501 526,1389 517,1379 522,1316 c 9,-107 102,-233 207,-280 31,-13 85,-30 121,-35 44,-7 610,-11 1720,-11 1776,0 1730,-1 1830,50 104,53 200,186 200,276 0,31 -7,51 -25,73 -14,16 -164,116 -333,222 -169,106 -604,381 -967,612 -722,460 -707,452 -785,410 z m 1435,351 c -357,-228 -651,-418 -652,-422 -2,-7 1281,-827 1312,-839 13,-4 15,104 15,836 0,667 -3,841 -12,840 -7,0 -305,-187 -663,-415 z M 520,2565 c 0,-691 2,-846 13,-843 18,4 1317,832 1317,839 0,4 -1257,809 -1317,843 -10,6 -13,-165 -13,-839 z m 330,1558 c -59,-10 -129,-37 -177,-70 -82,-55 -153,-175 -153,-259 0,-60 -85,-3 1179,-796 184,-116 350,-217 370,-225 69,-29 122,-8 339,134 62,41 127,77 145,79 26,4 47,-4 112,-46 283,-181 299,-190 335,-190 31,0 101,41 426,248 214,136 553,351 754,476 201,126 376,240 390,253 21,20 25,33 25,81 0,103 -82,220 -189,271 -113,52 -53,51 -1856,49 -921,0 -1686,-3 -1700,-5 z" />
  </g>
</svg>
